<svg version="1.1" xmlns="http://www.w3.org/2000/svg" viewBox="0 0 1458.640193111592 983.6237254228982" width="2917.280386223184" height="1967.2474508457965">
  <!-- svg-source:excalidraw -->
  
  <defs>
    <style class="style-fonts">
      @font-face {
        font-family: "Virgil";
        src: url("https://excalidraw.com/Virgil.woff2");
      }
      @font-face {
        font-family: "Cascadia";
        src: url("https://excalidraw.com/Cascadia.woff2");
      }
      @font-face {
        font-family: "Assistant";
        src: url("https://excalidraw.com/Assistant-Regular.woff2");
      }
    </style>
    
  </defs>
  <rect x="0" y="0" width="1458.640193111592" height="983.6237254228982" fill="#ffffff"></rect><g stroke-linecap="round" transform="translate(10 317.6805604544887) rotate(0 80.32706919772272 95.51258989292833)"><path d="M32 0 C56.46 2.24, 79.27 2, 128.65 0 M32 0 C60 -1.13, 90.5 -0.88, 128.65 0 M128.65 0 C149.38 2.62, 157.86 8.04, 160.65 32 M128.65 0 C149.6 -1.64, 162.1 12.88, 160.65 32 M160.65 32 C158.59 77.83, 160.4 120.03, 160.65 159.03 M160.65 32 C163.34 65.52, 160.05 99.49, 160.65 159.03 M160.65 159.03 C158.77 179.25, 150.77 189.08, 128.65 191.03 M160.65 159.03 C160.99 184.05, 150.31 192.92, 128.65 191.03 M128.65 191.03 C111.35 187.99, 89.7 187.31, 32 191.03 M128.65 191.03 C95.34 192.33, 58.96 191.17, 32 191.03 M32 191.03 C9.37 187.05, -2.81 179.24, 0 159.03 M32 191.03 C9.61 192.34, -3.78 182.84, 0 159.03 M0 159.03 C-3.62 120.01, -2.4 73.64, 0 32 M0 159.03 C-1.66 126.99, 0.96 94.72, 0 32 M0 32 C-1.34 9.59, 9.38 0.72, 32 0 M0 32 C-2.7 9.15, 15.21 0.85, 32 0" stroke="#1e1e1e" stroke-width="4" fill="none"></path></g><g transform="translate(56.21074641966402 375.4571848780479) rotate(0 37.71997833251953 10)"><text x="37.71997833251953" y="14.016" font-family="Virgil, Segoe UI Emoji" font-size="16px" fill="#1e1e1e" text-anchor="middle" style="white-space: pre;" direction="ltr" dominant-baseline="alphabetic">final year</text></g><g transform="translate(71.06584542233355 413.972166564545) rotate(0 12.471992492675781 10)"><text x="12.471992492675781" y="14.016" font-family="Virgil, Segoe UI Emoji" font-size="16px" fill="#1e1e1e" text-anchor="middle" style="white-space: pre;" direction="ltr" dominant-baseline="alphabetic">yes</text></g><g transform="translate(71.65059021256269 444.051900214556) rotate(0 8.167999267578125 10)"><text x="8.167999267578125" y="14.016" font-family="Virgil, Segoe UI Emoji" font-size="16px" fill="#1e1e1e" text-anchor="middle" style="white-space: pre;" direction="ltr" dominant-baseline="alphabetic">no</text></g><g stroke-linecap="round" transform="translate(288.0626481430522 161.45600819207098) rotate(0 80.32706919772271 95.51258989292833)"><path d="M32 0 C58.15 0.9, 78.72 -1.3, 128.65 0 M32 0 C60.47 2.24, 92.81 -0.42, 128.65 0 M128.65 0 C148.27 2.74, 161.34 8.02, 160.65 32 M128.65 0 C151.47 -2.57, 163.13 14.52, 160.65 32 M160.65 32 C158.76 68.35, 154.92 110.89, 160.65 159.03 M160.65 32 C160.26 70.01, 161.61 113.09, 160.65 159.03 M160.65 159.03 C158.59 181.13, 152.47 190.16, 128.65 191.03 M160.65 159.03 C159.82 176.62, 145.43 186.47, 128.65 191.03 M128.65 191.03 C106.08 190.01, 78.73 190.82, 32 191.03 M128.65 191.03 C92.45 190.32, 54.42 188.46, 32 191.03 M32 191.03 C9.02 192.99, -0.04 181.03, 0 159.03 M32 191.03 C14.97 191.5, 2.99 184.06, 0 159.03 M0 159.03 C-0.54 128.92, 0.43 95.93, 0 32 M0 159.03 C1.13 125.69, 1.16 95.06, 0 32 M0 32 C3.03 13.66, 14.57 2.08, 32 0 M0 32 C-0.83 8.2, 13.79 -4.11, 32 0" stroke="#1e1e1e" stroke-width="4" fill="none"></path></g><g transform="translate(337.10538766574354 219.23263261563008) rotate(0 34.88798522949219 10)"><text x="34.88798522949219" y="14.016" font-family="Virgil, Segoe UI Emoji" font-size="16px" fill="#1e1e1e" text-anchor="middle" style="white-space: pre;" direction="ltr" dominant-baseline="alphabetic">next uni?</text></g><g transform="translate(349.1284935653857 257.7476143021272) rotate(0 12.471992492675781 10)"><text x="12.471992492675781" y="14.016" font-family="Virgil, Segoe UI Emoji" font-size="16px" fill="#1e1e1e" text-anchor="middle" style="white-space: pre;" direction="ltr" dominant-baseline="alphabetic">yes</text></g><g transform="translate(349.71323835561486 287.8273479521382) rotate(0 8.167999267578125 10)"><text x="8.167999267578125" y="14.016" font-family="Virgil, Segoe UI Emoji" font-size="16px" fill="#1e1e1e" text-anchor="middle" style="white-space: pre;" direction="ltr" dominant-baseline="alphabetic">no</text></g><g stroke-linecap="round" transform="translate(288.0626481430522 483.6663123124216) rotate(0 80.32706919772271 95.51258989292833)"><path d="M32 0 C65.6 -1.31, 98.45 4.35, 128.65 0 M32 0 C64.97 -0.7, 101.32 -0.05, 128.65 0 M128.65 0 C151.85 -2.42, 163.55 10.31, 160.65 32 M128.65 0 C153.72 -3.13, 160.51 14.65, 160.65 32 M160.65 32 C159.1 79.96, 161.52 119.91, 160.65 159.03 M160.65 32 C161.42 59.19, 161.52 83.66, 160.65 159.03 M160.65 159.03 C159.37 176.64, 150.79 191.87, 128.65 191.03 M160.65 159.03 C156.25 176.52, 149.83 188.6, 128.65 191.03 M128.65 191.03 C108.52 190.16, 83.65 187.73, 32 191.03 M128.65 191.03 C94.91 193.18, 58.74 192.07, 32 191.03 M32 191.03 C11.87 194.42, -0.23 180.28, 0 159.03 M32 191.03 C9.46 188.46, -4.19 180.1, 0 159.03 M0 159.03 C-2.44 132.58, -4.34 103.18, 0 32 M0 159.03 C0.46 122.33, -1.05 87.21, 0 32 M0 32 C-3.71 10.59, 7.89 0.66, 32 0 M0 32 C-3.52 12.61, 6.25 -2.29, 32 0" stroke="#1e1e1e" stroke-width="4" fill="none"></path></g><g transform="translate(325.76940438937635 541.4429367359807) rotate(0 46.223968505859375 10)"><text x="46.223968505859375" y="14.016" font-family="Virgil, Segoe UI Emoji" font-size="16px" fill="#1e1e1e" text-anchor="middle" style="white-space: pre;" direction="ltr" dominant-baseline="alphabetic">free acess?</text></g><g transform="translate(349.1284935653857 579.9579184224779) rotate(0 12.471992492675781 10)"><text x="12.471992492675781" y="14.016" font-family="Virgil, Segoe UI Emoji" font-size="16px" fill="#1e1e1e" text-anchor="middle" style="white-space: pre;" direction="ltr" dominant-baseline="alphabetic">yes</text></g><g transform="translate(349.71323835561486 610.0376520724888) rotate(0 8.167999267578125 10)"><text x="8.167999267578125" y="14.016" font-family="Virgil, Segoe UI Emoji" font-size="16px" fill="#1e1e1e" text-anchor="middle" style="white-space: pre;" direction="ltr" dominant-baseline="alphabetic">no</text></g><g stroke-linecap="round" transform="translate(667.6400406595646 10) rotate(0 80.3270691977227 95.51258989292833)"><path d="M32 0 C55.89 0.54, 83.23 -2.26, 128.65 0 M32 0 C53.12 2.12, 72.94 1.44, 128.65 0 M128.65 0 C149.24 3.15, 162.69 10.76, 160.65 32 M128.65 0 C150.29 1.14, 160.31 6.67, 160.65 32 M160.65 32 C160.63 78.97, 162.98 129.53, 160.65 159.03 M160.65 32 C163.05 59.06, 162.64 85.16, 160.65 159.03 M160.65 159.03 C161.36 179.85, 146.29 195.01, 128.65 191.03 M160.65 159.03 C165.2 180.72, 151.24 191.28, 128.65 191.03 M128.65 191.03 C107.76 187.67, 85.92 187.76, 32 191.03 M128.65 191.03 C96.38 187.78, 66.62 191.24, 32 191.03 M32 191.03 C13.9 191.86, -3.26 182.65, 0 159.03 M32 191.03 C7 188.5, -4.58 181.17, 0 159.03 M0 159.03 C3.35 128.19, 1.29 102.19, 0 32 M0 159.03 C-1.94 107.58, 0.15 61.14, 0 32 M0 32 C0.39 9.48, 12.88 0.07, 32 0 M0 32 C-2.91 7.76, 7.72 2.81, 32 0" stroke="#1e1e1e" stroke-width="4" fill="none"></path></g><g transform="translate(726.4187802432912 67.7766244235591) rotate(0 25.15198516845703 10)"><text x="25.15198516845703" y="14.016" font-family="Virgil, Segoe UI Emoji" font-size="16px" fill="#1e1e1e" text-anchor="middle" style="white-space: pre;" direction="ltr" dominant-baseline="alphabetic">course</text></g><g transform="translate(698.2499000589489 106.29160611005625) rotate(0 42.927978515625 10)"><text x="42.927978515625" y="14.016" font-family="Virgil, Segoe UI Emoji" font-size="16px" fill="#1e1e1e" text-anchor="middle" style="white-space: pre;" direction="ltr" dominant-baseline="alphabetic">answer any</text></g><g stroke-linecap="round" transform="translate(960.1875392948007 130.7267186900433) rotate(0 80.3270691977227 95.51258989292833)"><path d="M32 0 C49.76 -2.12, 72.7 -1.62, 128.65 0 M32 0 C65.82 3.23, 101.13 0.37, 128.65 0 M128.65 0 C146.27 -1.91, 163.8 13.17, 160.65 32 M128.65 0 C150.83 -4.26, 157.79 12.03, 160.65 32 M160.65 32 C166.09 72.09, 160.25 105.78, 160.65 159.03 M160.65 32 C159.12 63.66, 161.64 93.75, 160.65 159.03 M160.65 159.03 C158.76 176.52, 152.51 190.32, 128.65 191.03 M160.65 159.03 C160.47 177.33, 149.64 195.21, 128.65 191.03 M128.65 191.03 C92.08 186.12, 53.31 189.57, 32 191.03 M128.65 191.03 C95.34 189.36, 65.13 192.41, 32 191.03 M32 191.03 C10.02 189.56, -1.72 182.04, 0 159.03 M32 191.03 C9.14 190.06, -1.31 180.74, 0 159.03 M0 159.03 C3.42 122.12, -0.39 86.46, 0 32 M0 159.03 C-0.91 125.82, 1.22 94.34, 0 32 M0 32 C-0.46 10.78, 7.39 0.51, 32 0 M0 32 C0.97 8.37, 13.41 2.9, 32 0" stroke="#1e1e1e" stroke-width="4" fill="none"></path></g><g transform="translate(997.230294076281 188.5033431136024) rotate(0 46.887969970703125 10)"><text x="46.887969970703125" y="14.016" font-family="Virgil, Segoe UI Emoji" font-size="16px" fill="#1e1e1e" text-anchor="middle" style="white-space: pre;" direction="ltr" dominant-baseline="alphabetic">landing page</text></g><g transform="translate(1021.2533847171342 227.01832480009955) rotate(0 12.471992492675781 10)"><text x="12.471992492675781" y="14.016" font-family="Virgil, Segoe UI Emoji" font-size="16px" fill="#1e1e1e" text-anchor="middle" style="white-space: pre;" direction="ltr" dominant-baseline="alphabetic">yes</text></g><g transform="translate(1021.8381295073633 257.0980584501105) rotate(0 8.167999267578125 10)"><text x="8.167999267578125" y="14.016" font-family="Virgil, Segoe UI Emoji" font-size="16px" fill="#1e1e1e" text-anchor="middle" style="white-space: pre;" direction="ltr" dominant-baseline="alphabetic">no</text></g><g stroke-linecap="round"><g transform="translate(841.8867757560729 104.14469365252118) rotate(0 57.751707652335085 45.11920098001018)"><path d="M-1.6 1.82 C18.12 16.23, 97.18 72.85, 117.1 86.72 M2.73 0.34 C22.16 15.13, 95.8 75.49, 114.76 89.9" stroke="#1e1e1e" stroke-width="4" fill="none"></path></g><g transform="translate(841.8867757560729 104.14469365252118) rotate(0 57.751707652335085 45.11920098001018)"><path d="M92.34 81.86 C96.57 84.62, 101.47 85.23, 112.89 88.27 M91.95 81.54 C98.15 83.37, 106.55 86.33, 115.31 88.93" stroke="#1e1e1e" stroke-width="4" fill="none"></path></g><g transform="translate(841.8867757560729 104.14469365252118) rotate(0 57.751707652335085 45.11920098001018)"><path d="M102.96 68.47 C104.47 74.6, 106.64 78.66, 112.89 88.27 M102.58 68.14 C105.66 74.14, 110.81 81.19, 115.31 88.93" stroke="#1e1e1e" stroke-width="4" fill="none"></path></g></g><mask></mask><g stroke-linecap="round" transform="translate(1287.9860547161466 131.3532523309097) rotate(0 80.32706919772272 95.51258989292833)"><path d="M32 0 C70.27 -0.32, 103.02 2.35, 128.65 0 M32 0 C62.5 0.29, 92.99 1.45, 128.65 0 M128.65 0 C147.54 -1.01, 159.01 12.93, 160.65 32 M128.65 0 C150 -0.74, 159.87 13.73, 160.65 32 M160.65 32 C158.16 74.96, 164.21 129.88, 160.65 159.03 M160.65 32 C158.8 59.44, 157.61 83.77, 160.65 159.03 M160.65 159.03 C159.7 184.1, 153.84 193.86, 128.65 191.03 M160.65 159.03 C160.75 183.3, 148.98 195.62, 128.65 191.03 M128.65 191.03 C87.43 189.12, 53.52 193.21, 32 191.03 M128.65 191.03 C104.25 191.79, 80.04 191.74, 32 191.03 M32 191.03 C13.3 188.56, 1.08 181.3, 0 159.03 M32 191.03 C6.51 191.82, 3.45 178.11, 0 159.03 M0 159.03 C-0.42 117.76, -3.13 81.8, 0 32 M0 159.03 C-0.85 117.67, 2.64 73.93, 0 32 M0 32 C-1.98 11.05, 9.34 -1.1, 32 0 M0 32 C2.3 11.67, 8.37 3.7, 32 0" stroke="#1e1e1e" stroke-width="4" fill="none"></path></g><g transform="translate(1328.9088067510447 189.1298767544688) rotate(0 43.007972717285156 10)"><text x="43.007972717285156" y="14.016" font-family="Virgil, Segoe UI Emoji" font-size="16px" fill="#1e1e1e" text-anchor="middle" style="white-space: pre;" direction="ltr" dominant-baseline="alphabetic">keep acess</text></g><g stroke-linecap="round" transform="translate(53.25338146610653 782.5985456370415) rotate(0 80.3270691977227 95.51258989292836)"><path d="M32 0 C64.2 -1.22, 102.71 -0.61, 128.65 0 M32 0 C63.09 -1.78, 97.49 -0.66, 128.65 0 M128.65 0 C146.82 2.63, 162.08 8.29, 160.65 32 M128.65 0 C147.27 3.38, 159.59 7.7, 160.65 32 M160.65 32 C163.4 80.79, 164.96 125.84, 160.65 159.03 M160.65 32 C159.78 71.66, 160.79 113.9, 160.65 159.03 M160.65 159.03 C163.91 177.68, 149.2 190.55, 128.65 191.03 M160.65 159.03 C161.77 183.83, 151.39 194.25, 128.65 191.03 M128.65 191.03 C109.8 192.97, 85.43 192.33, 32 191.03 M128.65 191.03 C103.48 188.44, 82.48 188.51, 32 191.03 M32 191.03 C12.39 194.72, -2.13 180.02, 0 159.03 M32 191.03 C8.79 190.19, 3.99 181.74, 0 159.03 M0 159.03 C1.47 119.6, -4.96 80.92, 0 32 M0 159.03 C3.85 113.85, 3.73 67.8, 0 32 M0 32 C3.64 8.46, 6.94 3.87, 32 0 M0 32 C1.9 12.78, 10.8 -2.83, 32 0" stroke="#1e1e1e" stroke-width="4" fill="none"></path></g><g transform="translate(94.17613350100481 840.3751700606007) rotate(0 43.007972717285156 10)"><text x="43.007972717285156" y="14.016" font-family="Virgil, Segoe UI Emoji" font-size="16px" fill="#1e1e1e" text-anchor="middle" style="white-space: pre;" direction="ltr" dominant-baseline="alphabetic">keep acess</text></g><g stroke-linecap="round" transform="translate(696.1546065938783 458.79721770742435) rotate(0 80.32706919772272 95.51258989292836)"><path d="M32 0 C53.96 -2.89, 80.08 -1.22, 128.65 0 M32 0 C63.4 -3.51, 98.14 -0.42, 128.65 0 M128.65 0 C150.35 -3.08, 163.5 7.91, 160.65 32 M128.65 0 C153.77 -1.83, 164.27 8.84, 160.65 32 M160.65 32 C163.3 82.88, 158.63 122.68, 160.65 159.03 M160.65 32 C164.03 63.22, 161.14 99.51, 160.65 159.03 M160.65 159.03 C157.71 178.6, 150.77 187.19, 128.65 191.03 M160.65 159.03 C162.53 181.8, 153.12 193.97, 128.65 191.03 M128.65 191.03 C100.33 193.86, 67.95 193.82, 32 191.03 M128.65 191.03 C88.85 193.11, 51.9 189.91, 32 191.03 M32 191.03 C9.06 190.21, 2.63 181.28, 0 159.03 M32 191.03 C9.59 186.98, 4.57 183.27, 0 159.03 M0 159.03 C-0.91 129.95, 1.3 101.74, 0 32 M0 159.03 C-2.58 129.78, -1.4 102.81, 0 32 M0 32 C3.97 12.95, 13.99 -2.51, 32 0 M0 32 C0.35 14.19, 15.13 4.28, 32 0" stroke="#1e1e1e" stroke-width="4" fill="none"></path></g><g transform="translate(734.6213497176437 516.5738421309835) rotate(0 45.46398162841797 20)"><text x="45.46398162841797" y="14.016" font-family="Virgil, Segoe UI Emoji" font-size="16px" fill="#1e1e1e" text-anchor="middle" style="white-space: pre;" direction="ltr" dominant-baseline="alphabetic">cancellation</text><text x="45.46398162841797" y="34.016" font-family="Virgil, Segoe UI Emoji" font-size="16px" fill="#1e1e1e" text-anchor="middle" style="white-space: pre;" direction="ltr" dominant-baseline="alphabetic">flow</text></g><g stroke-linecap="round"><g transform="translate(1030.3616941084783 284.02784448018076) rotate(0 -79.08169009033455 155.4005573661029)"><path d="M2.21 0.29 C-24.3 51.71, -131.59 257.88, -158.55 308.96 M-0.03 -2.02 C-26.89 49.88, -133.47 261, -160.38 312.82" stroke="#1e1e1e" stroke-width="4" fill="none"></path></g><g transform="translate(1030.3616941084783 284.02784448018076) rotate(0 -79.08169009033455 155.4005573661029)"><path d="M-157.09 288.56 C-157.93 295.78, -160.48 304.53, -160.47 311.99 M-156.75 288.15 C-157.48 293.57, -158.23 297.86, -161.05 312.57" stroke="#1e1e1e" stroke-width="4" fill="none"></path></g><g transform="translate(1030.3616941084783 284.02784448018076) rotate(0 -79.08169009033455 155.4005573661029)"><path d="M-141.86 296.34 C-147.57 301.21, -154.96 307.48, -160.47 311.99 M-141.52 295.93 C-145.38 299.86, -149.32 302.51, -161.05 312.57" stroke="#1e1e1e" stroke-width="4" fill="none"></path></g></g><mask></mask><g stroke-linecap="round"><g transform="translate(370.582915476748 613.7739567231347) rotate(0 154.0149687310574 -4.411760729075866)"><path d="M-1.07 -1.21 C50.54 -3.18, 257.56 -11.43, 309.1 -13.12 M3.54 4.3 C54.79 2.77, 256.28 -8.38, 306.63 -10.47" stroke="#1e1e1e" stroke-width="4" fill="none"></path></g><g transform="translate(370.582915476748 613.7739567231347) rotate(0 154.0149687310574 -4.411760729075866)"><path d="M282.72 -1.09 C288.8 -4.38, 296.52 -7.19, 304.96 -9.52 M282.74 -0.86 C287.67 -2.3, 292.51 -5.49, 306.05 -11.12" stroke="#1e1e1e" stroke-width="4" fill="none"></path></g><g transform="translate(370.582915476748 613.7739567231347) rotate(0 154.0149687310574 -4.411760729075866)"><path d="M281.88 -18.17 C288.12 -16.67, 296.07 -14.69, 304.96 -9.52 M281.9 -17.94 C286.9 -15.79, 291.92 -15.37, 306.05 -11.12" stroke="#1e1e1e" stroke-width="4" fill="none"></path></g></g><mask></mask><g stroke-linecap="round"><g transform="translate(347.8237167085322 584.2394523036893) rotate(0 -73.87461037927913 109.9156196285748)"><path d="M-1.92 1.98 C-26.63 38.18, -124.12 183.4, -148.69 219.25 M2.24 0.58 C-22.66 35.74, -124.52 178.31, -149.99 214.81" stroke="#1e1e1e" stroke-width="4" fill="none"></path></g><g transform="translate(347.8237167085322 584.2394523036893) rotate(0 -73.87461037927913 109.9156196285748)"><path d="M-141.99 191.93 C-144.37 198.32, -147.8 205.03, -150.72 213.19 M-143.33 189.83 C-145.38 200.33, -148.49 210.26, -150.74 213.83" stroke="#1e1e1e" stroke-width="4" fill="none"></path></g><g transform="translate(347.8237167085322 584.2394523036893) rotate(0 -73.87461037927913 109.9156196285748)"><path d="M-128.03 201.8 C-134.47 205.27, -141.9 209.16, -150.72 213.19 M-129.37 199.7 C-136.9 206.18, -145.56 212.17, -150.74 213.83" stroke="#1e1e1e" stroke-width="4" fill="none"></path></g></g><mask></mask><g stroke-linecap="round"><g transform="translate(1053.6502895189747 237.14467211364448) rotate(0 115.96171929076803 -1.658544293061425)"><path d="M1.42 1.34 C39.99 0.43, 195.1 -4.42, 233.18 -4.65 M-1.25 -0.41 C36.94 -1.1, 193.77 -1.59, 231.85 -2.24" stroke="#1e1e1e" stroke-width="4" fill="none"></path></g><g transform="translate(1053.6502895189747 237.14467211364448) rotate(0 115.96171929076803 -1.658544293061425)"><path d="M209.39 7.73 C215.31 2.08, 227.1 0.32, 231.35 -1.49 M208.27 7.48 C215.89 3.11, 224.21 0.83, 231.77 -2.89" stroke="#1e1e1e" stroke-width="4" fill="none"></path></g><g transform="translate(1053.6502895189747 237.14467211364448) rotate(0 115.96171929076803 -1.658544293061425)"><path d="M209.24 -9.37 C215.26 -8.82, 227.1 -4.38, 231.35 -1.49 M208.11 -9.62 C215.82 -8.34, 224.19 -4.98, 231.77 -2.89" stroke="#1e1e1e" stroke-width="4" fill="none"></path></g></g><mask></mask><g stroke-linecap="round"><g transform="translate(382.4967683530655 263.15310348449304) rotate(0 133.7066592012538 -79.2067104478411)"><path d="M-1.43 -0.97 C42.1 -27.05, 218.92 -131.36, 263.61 -157.45 M2.98 -3.96 C47.18 -29.48, 225.11 -128.76, 268.85 -153.83" stroke="#1e1e1e" stroke-width="4" fill="none"></path></g><g transform="translate(382.4967683530655 263.15310348449304) rotate(0 133.7066592012538 -79.2067104478411)"><path d="M251.9 -136.37 C258.9 -141.4, 265.14 -148.55, 269.04 -153.09 M253.48 -134.38 C258.02 -140.71, 262.01 -146.48, 269.67 -154.58" stroke="#1e1e1e" stroke-width="4" fill="none"></path></g><g transform="translate(382.4967683530655 263.15310348449304) rotate(0 133.7066592012538 -79.2067104478411)"><path d="M243.5 -151.26 C253.69 -150.51, 263.17 -151.92, 269.04 -153.09 M245.07 -149.27 C252.28 -150.87, 258.91 -151.96, 269.67 -154.58" stroke="#1e1e1e" stroke-width="4" fill="none"></path></g></g><mask></mask><g stroke-linecap="round"><g transform="translate(374.6578125673419 300.9442527835729) rotate(0 296.55586289487775 -22.477060291146955)"><path d="M1.35 -1.02 C99.39 -8.09, 490.49 -37.16, 589.21 -43.94 M-1.36 -4.04 C97.47 -10.66, 495.39 -35.54, 594.47 -41.25" stroke="#1e1e1e" stroke-width="4" fill="none"></path></g><g transform="translate(374.6578125673419 300.9442527835729) rotate(0 296.55586289487775 -22.477060291146955)"><path d="M570.81 -32.79 C578.01 -33.04, 587.28 -36.9, 596.39 -39.7 M571.67 -30.94 C578.59 -35.27, 586.86 -37.19, 595.08 -41.04" stroke="#1e1e1e" stroke-width="4" fill="none"></path></g><g transform="translate(374.6578125673419 300.9442527835729) rotate(0 296.55586289487775 -22.477060291146955)"><path d="M569.78 -49.86 C577.24 -44.41, 586.85 -42.57, 596.39 -39.7 M570.64 -48.01 C577.99 -46.92, 586.59 -43.43, 595.08 -41.04" stroke="#1e1e1e" stroke-width="4" fill="none"></path></g></g><mask></mask><g stroke-linecap="round"><g transform="translate(102.7616398310505 426.2509809568486) rotate(0 88.10654337452058 -75.16382776538552)"><path d="M-2.16 2.64 C27.35 -21.96, 148.83 -123.57, 178.37 -148.79 M1.87 1.61 C31.06 -23.7, 148.78 -127.16, 177.24 -152.97" stroke="#1e1e1e" stroke-width="4" fill="none"></path></g><g transform="translate(102.7616398310505 426.2509809568486) rotate(0 88.10654337452058 -75.16382776538552)"><path d="M167.27 -129.5 C170.7 -139.41, 174.94 -147.84, 175.25 -153.37 M165.23 -131.7 C168.61 -136.19, 170.89 -141.22, 177.26 -153.83" stroke="#1e1e1e" stroke-width="4" fill="none"></path></g><g transform="translate(102.7616398310505 426.2509809568486) rotate(0 88.10654337452058 -75.16382776538552)"><path d="M155.9 -142.27 C163.24 -147.64, 171.44 -151.62, 175.25 -153.37 M153.86 -144.47 C160.08 -145.77, 165.18 -147.63, 177.26 -153.83" stroke="#1e1e1e" stroke-width="4" fill="none"></path></g></g><mask></mask><g stroke-linecap="round"><g transform="translate(97.22483091176622 456.8734197604341) rotate(0 89.67054346702031 37.4191420147819)"><path d="M0.85 -0.96 C31.05 11.25, 151.89 62.52, 181.48 75.21 M-2.14 -3.95 C27.91 8.56, 150.95 65.1, 180.7 78.79" stroke="#1e1e1e" stroke-width="4" fill="none"></path></g><g transform="translate(97.22483091176622 456.8734197604341) rotate(0 89.67054346702031 37.4191420147819)"><path d="M155.09 78.68 C163.45 77.01, 171.15 79.06, 181.85 80.01 M155.03 77.44 C161.17 76.89, 166.58 76.84, 180.07 78.01" stroke="#1e1e1e" stroke-width="4" fill="none"></path></g><g transform="translate(97.22483091176622 456.8734197604341) rotate(0 89.67054346702031 37.4191420147819)"><path d="M162.23 63.13 C168.48 66.31, 173.97 73.17, 181.85 80.01 M162.16 61.9 C166.6 64.92, 170.37 68.44, 180.07 78.01" stroke="#1e1e1e" stroke-width="4" fill="none"></path></g></g><mask></mask></svg>